<svg width="130" height="36" viewBox="0 0 130 36" fill="none" xmlns="http://www.w3.org/2000/svg">
<path d="M14.9883 36C12.8233 36 10.8248 35.6241 8.99295 34.8724C7.18881 34.0928 5.60672 33.0209 4.24667 31.6566C2.91438 30.2923 1.87353 28.7053 1.12412 26.8956C0.374706 25.058 0 23.0812 0 20.9652C0 18.2923 0.568999 15.884 1.707 13.7401C2.84499 11.5963 4.44096 9.89791 6.49491 8.64501C8.57661 7.39211 10.9914 6.76566 13.7392 6.76566C16.3483 6.76566 18.4855 7.11369 20.1509 7.80975C21.8162 8.47796 23.0375 9.25754 23.8147 10.1485C24.3698 10.8445 24.689 11.7494 24.7723 12.8631C24.8555 13.9768 24.8972 15.007 24.8972 15.9536H23.6481C23.1208 13.3921 22.1493 11.5406 20.7338 10.3991C19.3182 9.2297 17.403 8.64501 14.9883 8.64501C13.3229 8.64501 11.9073 8.97912 10.7416 9.64733C9.60359 10.3155 8.65988 11.2343 7.91047 12.4037C7.18881 13.5731 6.66145 14.8956 6.32837 16.3712C5.9953 17.8469 5.82877 19.3782 5.82877 20.9652C5.82877 24.3341 6.23123 26.993 7.03615 28.942C7.86883 30.891 8.97908 32.2831 10.3669 33.1183C11.7547 33.9258 13.2951 34.3295 14.9883 34.3295C16.2373 34.3295 17.3059 34.232 18.1941 34.0371C19.0823 33.8422 19.8872 33.5777 20.6089 33.2436V25.8097C20.6089 25.2251 20.6921 24.6404 20.8587 24.0557C21.0529 23.471 21.4277 22.9281 21.9828 22.4269C22.5379 21.8979 23.3428 21.4803 24.3975 21.174C25.48 20.8678 26.9095 20.7146 28.6859 20.7146V21.7587C27.7421 21.7587 27.0621 22.1067 26.6458 22.8028C26.2294 23.4988 26.0213 24.4733 26.0213 25.7262V33.2019C24.4114 34.1763 22.7044 34.8863 20.9003 35.3318C19.0961 35.7773 17.1255 36 14.9883 36Z" fill="#ffffff"/>
<path d="M55.02 35.3318C54.1041 35.3318 53.1326 35.2204 52.1057 34.9977C51.1064 34.7471 50.135 34.232 49.1913 33.4524C48.2753 32.6729 47.4843 31.4896 46.8181 29.9026L45.8605 27.5638H34.7859L31.3719 35.1647H29.2069L41.489 7.60093H43.3625L52.6885 29.9026C53.1881 31.1276 53.7988 32.1021 54.5204 32.826C55.2421 33.5499 56.0748 33.9675 57.0185 34.0789V35.123C56.7964 35.1787 56.4772 35.2204 56.0609 35.2483C55.6723 35.3039 55.3254 35.3318 55.02 35.3318ZM35.6602 25.6845H45.0695L40.4898 14.7842L35.6602 25.6845Z" fill="#ffffff"/>
<path d="M59.7855 35.1647V13.0302C59.7855 11.7773 59.6051 10.7749 59.2443 10.0232C58.9112 9.24362 58.1201 8.85383 56.8711 8.85383H56.4548V7.60093H74.8154C75.7868 7.60093 76.5224 7.76798 77.022 8.10209C77.5216 8.40835 77.8686 8.82599 78.0628 9.35499C78.2571 9.85615 78.3543 10.3852 78.3543 10.942V14.4919H77.1053C77.1053 12.71 76.6473 11.4292 75.7313 10.6497C74.8431 9.87007 73.5664 9.48028 71.901 9.48028H65.1979V19.9211H76.0228V21.8005H65.1979V33.2854H72.3174C73.8439 33.2854 75.1346 32.9513 76.1893 32.2831C77.2718 31.587 78.1739 30.3341 78.8955 28.5244L80.0196 28.942L78.8123 32.2413C78.5069 33.1323 78.1045 33.8422 77.6049 34.3712C77.133 34.9002 76.3281 35.1647 75.1901 35.1647H59.7855ZM72.1508 4.6775C71.4292 4.6775 70.8602 4.45476 70.4438 4.00928C70.0275 3.53596 69.8193 2.97912 69.8193 2.33875C69.8193 1.69838 70.0275 1.15545 70.4438 0.709978C70.8602 0.236659 71.4292 0 72.1508 0C72.8725 0 73.4415 0.236659 73.8578 0.709978C74.2742 1.15545 74.4823 1.69838 74.4823 2.33875C74.4823 2.97912 74.2742 3.53596 73.8578 4.00928C73.4415 4.45476 72.8725 4.6775 72.1508 4.6775ZM64.6567 4.6775C63.935 4.6775 63.366 4.45476 62.9497 4.00928C62.5334 3.53596 62.3252 2.97912 62.3252 2.33875C62.3252 1.69838 62.5334 1.15545 62.9497 0.709978C63.366 0.236659 63.935 0 64.6567 0C65.3783 0 65.9473 0.236659 66.3637 0.709978C66.78 1.15545 66.9882 1.69838 66.9882 2.33875C66.9882 2.97912 66.78 3.53596 66.3637 4.00928C65.9473 4.45476 65.3783 4.6775 64.6567 4.6775Z" fill="#ffffff"/>
<path d="M90.4535 35.1647V9.48028H87.4975C86.0264 9.48028 84.8607 9.85615 84.0002 10.6079C83.1398 11.3318 82.7096 12.6264 82.7096 14.4919H81.4606V10.942C81.4606 10.3852 81.5577 9.85615 81.752 9.35499C81.9463 8.82599 82.2933 8.40835 82.7929 8.10209C83.3202 7.76798 84.0558 7.60093 84.9995 7.60093H104.567V9.48028H95.8659V35.1647H90.4535Z" fill="#ffffff"/>
<path d="M128.002 35.3318C127.086 35.3318 126.114 35.2204 125.087 34.9977C124.088 34.7471 123.117 34.232 122.173 33.4524C121.257 32.6729 120.466 31.4896 119.8 29.9026L118.842 27.5638H107.767L104.353 35.1647H102.188L114.471 7.60093H116.344L125.67 29.9026C126.17 31.1276 126.78 32.1021 127.502 32.826C128.224 33.5499 129.056 33.9675 130 34.0789V35.123C129.778 35.1787 129.459 35.2204 129.042 35.2483C128.654 35.3039 128.307 35.3318 128.002 35.3318ZM108.642 25.6845H118.051L113.471 14.7842L108.642 25.6845Z" fill="#ffffff"/>
</svg>
